<svg xmlns="http://www.w3.org/2000/svg" xmlns:xlink="http://www.w3.org/1999/xlink" width="384" height="384" viewBox="0 0 384 384">
  <defs><mask id="m" maskUnits="userSpaceOnUse"><circle cx="192" cy="192" r="64" style="fill:#fff" /></mask></defs>
  <path id="a" fill="none" stroke="#0069a8" stroke-width="32" d="M0 139.999c2.67 0 5.341.127 8 .38 15.375 1.459 30.292 7.213 42.8 16.273 12.507 9.061 22.592 21.389 29.2 35.347 10.401 21.972 12.042 47.033 20 70 2.893 8.35 6.717 16.555 12.718 23.041 3.001 3.243 6.531 6.023 10.495 7.974 3.965 1.95 8.37 3.058 12.787 2.986 4.378-.071 8.706-1.3 12.589-3.327 3.882-2.027 7.329-4.836 10.284-8.07 5.91-6.465 9.806-14.498 13.127-22.604 9.213-22.481 14.598-46.311 20-70 5.401-23.686 10.893-47.476 20-70 3.291-8.139 7.134-16.225 13.041-22.72 2.953-3.248 6.411-6.067 10.313-8.079 3.901-2.012 8.256-3.202 12.646-3.2 4.388.001 8.742 1.195 12.642 3.209 3.899 2.013 7.355 4.832 10.307 8.08 5.905 6.495 9.75 14.577 13.05 22.71 9.139 22.514 14.726 46.283 20.002 70 4.868 21.888 9.639 44.201 20.574 63.776 5.467 9.788 12.477 18.801 21.181 25.867s19.153 12.133 30.244 13.77c2.648.39 5.322.587 7.999.587" />
  <path id="b" fill="none" stroke="#00bcff" stroke-width="32" d="M0 244c2.67 0 5.34-.126 8-.379 15.377-1.459 30.298-7.204 42.808-16.262 12.512-9.058 22.6-21.39 29.191-35.358 10.376-21.983 11.953-47.064 20-70.002 2.921-8.321 6.786-16.485 12.788-22.946 3.001-3.231 6.522-6.004 10.471-7.967 3.948-1.962 8.332-3.1 12.742-3.085 4.402.013 8.769 1.178 12.701 3.155 3.932 1.978 7.436 4.758 10.427 7.986C165.112 105.6 168.991 113.727 172 122c8.302 22.829 10.625 47.592 20 70 4.876 11.656 11.631 22.533 20 32 4.683 5.298 9.911 10.187 15.959 13.848 6.05 3.661 12.971 6.059 20.041 6.152 7.108.094 14.14-2.151 20.244-5.797 6.102-3.646 11.316-8.652 15.756-14.203 7.864-9.831 13.342-21.314 20-32 8.08-12.967 18.039-24.895 30.202-34.143s26.612-15.74 41.799-17.417A73 73 0 0 1 384 140" />
  <use xlink:href="#a" mask="url(#m)" />
</svg>
